<?xml version="1.0" encoding="iso-8859-1"?>
<!-- Generator: Adobe Illustrator 17.0.2, SVG Export Plug-In . SVG Version: 6.00 Build 0)  -->
<!DOCTYPE svg PUBLIC "-//W3C//DTD SVG 1.1//EN" "http://www.w3.org/Graphics/SVG/1.1/DTD/svg11.dtd">
<svg version="1.1" xmlns="http://www.w3.org/2000/svg" xmlns:xlink="http://www.w3.org/1999/xlink" x="0px" y="0px"
	 width="42.167px" height="42.333px" viewBox="0 0 42.167 42.333" style="enable-background:new 0 0 42.167 42.333;"
	 xml:space="preserve">
<g id="Layer_4">
	<g>
		<g>
			<path style="fill:none;stroke:#4F4F4F;stroke-width:1.5;stroke-linecap:round;stroke-linejoin:round;stroke-miterlimit:10;" d="
				M19.976,21.416c0,3.25-1.975,4.973-4.384,4.973c-2.494,0-4.245-1.934-4.245-4.791c0-2.997,1.863-4.958,4.385-4.958
				C18.309,16.64,19.976,18.614,19.976,21.416z M12.649,21.57c0,2.017,1.093,3.823,3.012,3.823c1.934,0,3.025-1.778,3.025-3.922
				c0-1.877-0.98-3.838-3.011-3.838C13.658,17.634,12.649,19.497,12.649,21.57z"/>
			<path style="fill:none;stroke:#4F4F4F;stroke-width:1.5;stroke-linecap:round;stroke-linejoin:round;stroke-miterlimit:10;" d="
				M24.354,16.919c0.616-0.126,1.499-0.195,2.34-0.195c1.302,0,2.143,0.237,2.731,0.771c0.476,0.42,0.742,1.064,0.742,1.793
				c0,1.246-0.784,2.072-1.779,2.409v0.042c0.729,0.252,1.163,0.924,1.387,1.904c0.309,1.317,0.532,2.228,0.729,2.592h-1.261
				c-0.154-0.267-0.364-1.078-0.63-2.255c-0.28-1.303-0.785-1.793-1.892-1.835h-1.148v4.09h-1.219V16.919z M25.572,21.22h1.247
				c1.303,0,2.129-0.715,2.129-1.793c0-1.219-0.883-1.751-2.171-1.765c-0.589,0-1.009,0.056-1.205,0.111V21.22z"/>
		</g>
		
			<circle style="fill:none;stroke:#4F4F4F;stroke-width:2;stroke-linecap:round;stroke-linejoin:round;stroke-miterlimit:10;" cx="21.165" cy="21.234" r="19"/>
	</g>
</g>
<g id="Alt_form">
</g>
<g id="Hubspots_Partners" style="display:none;">
</g>
<g id="_x22_become_a_partner_x22_" style="display:none;">
</g>
<g id="Layer_13" style="display:none;">
</g>
<g id="Header_1" style="display:none;">
</g>
<g id="Header_Diamond" style="display:none;">
</g>
<g id="Header_Dark">
</g>
<g id="dropdown_close">
</g>
<g id="dropdown_open" style="display:none;">
</g>
<g id="Alt_header" style="display:none;">
</g>
<g id="Header_Light" style="display:none;">
</g>
<g id="Layer_7">
</g>
<g id="Layer_8">
</g>
<g id="tier_hover_states" style="display:none;">
</g>
<g id="grid" style="display:none;">
</g>
<g id="fold" style="display:none;">
</g>
<g id="Nav">
</g>
<g id="Tool_bar" style="display:none;">
</g>
</svg>
